<svg width="87" height="86" viewBox="0 0 87 86" fill="none" xmlns="http://www.w3.org/2000/svg">
<path d="M9.14418 32.2393C10.345 32.2393 11.2449 32.3933 11.8448 32.7015C12.4438 33.0097 12.8526 33.5257 13.0701 34.2495C13.2241 34.7135 13.2595 35.0988 13.1752 35.4069C13.1045 35.7151 12.9124 35.905 12.5988 35.9767C12.2871 36.0483 12.0351 36.025 11.8448 35.905C11.6536 35.7644 11.4732 35.5216 11.3047 35.1776C11.147 34.8336 11.0083 34.6025 10.8878 34.4824C10.7691 34.3633 10.6087 34.2853 10.4057 34.2495C9.37346 34.0372 8.56871 34.0972 7.99143 34.4287C7.56096 34.6894 7.42955 34.9447 7.5963 35.1955C7.76486 35.4445 8.46086 35.8745 9.6843 36.4855C10.9096 37.0947 11.7732 37.5892 12.2762 37.969C12.781 38.3488 13.1045 38.7233 13.2477 39.0906C13.3927 39.4588 13.4407 39.8861 13.3927 40.3734C13.3437 40.859 13.2187 41.2854 13.0157 41.6527C11.9717 43.4802 10.0695 43.7238 7.30993 42.3837C5.99949 41.7557 5.62158 41.1385 6.1753 40.5311C6.3783 40.2946 6.62299 40.1889 6.91118 40.2122C7.20118 40.2364 7.63618 40.3904 8.21618 40.6744C8.79799 40.9593 9.34083 41.125 9.8438 41.1725C10.3486 41.2209 10.6676 41.2209 10.8008 41.1725C10.9331 41.125 11.0709 41.0184 11.2141 40.8536C11.4071 40.5813 11.5041 40.3394 11.5041 40.1262C11.5041 39.9112 11.3056 39.6496 10.9096 39.3414C10.5126 39.0333 9.77674 38.6454 8.70193 38.1768C7.62893 37.7065 6.8278 37.247 6.29855 36.7973C5.77111 36.3458 5.5083 35.7823 5.5083 35.1059C5.5083 34.2155 5.98136 33.4433 6.9293 32.7911C7.30086 32.5188 7.59449 32.3593 7.81018 32.3109C8.02768 32.2634 8.47174 32.2393 9.14418 32.2393Z" fill="#D40020"/>
<path d="M16.4877 32.7191C16.4877 35.6861 16.5357 37.2762 16.6327 37.4885C16.8593 37.6444 17.5435 37.5557 18.6844 37.2233C19.8245 36.8919 20.4725 36.5945 20.6274 36.3311C20.7842 36.1071 20.6102 35.627 20.1054 34.8906C19.6025 34.1551 19.1104 33.6454 18.6301 33.3605C18.1516 33.0765 17.4374 32.8624 16.4877 32.7191ZM15.4074 30.9238H16.9372C17.8018 30.9722 18.5467 31.1379 19.1702 31.4219C19.7937 31.7068 20.429 32.2165 21.0769 32.952C21.7267 33.6884 22.1835 34.448 22.4472 35.231C22.6864 36.0005 22.6738 36.6527 22.4109 37.1875C22.1472 37.7205 21.5591 38.1944 20.6456 38.6101C19.7339 39.0257 18.7325 39.2936 17.6404 39.4127L16.5964 39.5346L16.6871 40.9607C16.7351 41.5771 16.7469 41.9927 16.7233 42.2077C16.6988 42.421 16.6082 42.6037 16.4514 42.756C16.1995 43.0516 15.9303 43.1761 15.6431 43.1287C15.3549 43.083 15.1084 42.8527 14.9036 42.4371C14.7731 42.1988 14.6589 40.3946 14.5628 37.0262C14.4658 33.6579 14.4776 31.8259 14.5991 31.5294C14.6226 31.4577 14.658 31.3986 14.7042 31.3502C14.7522 31.3028 14.8003 31.249 14.8492 31.189C14.8972 31.1299 14.9579 31.0887 15.0304 31.0672C15.1029 31.0439 15.1573 31.0197 15.1936 30.9955C15.2416 30.948 15.3132 30.9238 15.4074 30.9238Z" fill="#D40020"/>
<path d="M29.6299 34.3929C29.1486 34.1447 28.836 34.0148 28.691 34.0023C28.5478 33.9906 28.2904 34.0668 27.9189 34.2316C27.1621 34.5425 26.6284 34.9232 26.3166 35.3747C26.0049 35.8244 25.8 36.464 25.704 37.2954C25.607 38.1249 25.8109 38.8129 26.3166 39.3594C26.8214 39.904 27.5056 40.1889 28.3684 40.2122C28.8731 40.2122 29.3181 40.1181 29.7024 39.9291C30.0866 39.7383 30.469 39.4409 30.8515 39.0369C31.2357 38.6095 31.494 38.1831 31.6272 37.7576C31.7595 37.3303 31.7478 36.9567 31.591 36.636C31.0853 35.5449 30.4319 34.7969 29.6299 34.3929ZM23.6885 37.6322C23.6885 36.3279 24.0483 35.1955 24.7687 34.2352C25.4883 33.2731 26.4661 32.6012 27.7014 32.2214C28.1219 32.0924 28.5242 32.0583 28.9085 32.1174C29.2927 32.1748 29.7658 32.3351 30.3295 32.5976C31.2792 33.0231 32.0659 33.6869 32.6894 34.5899C33.3129 35.4911 33.63 36.4049 33.6427 37.3312C33.63 38.2557 33.2521 39.182 32.5081 40.1083C31.7632 41.0328 30.875 41.6616 29.8437 41.9931C28.8115 42.3013 27.8155 42.3013 26.8567 41.9931C25.897 41.6849 25.1285 41.1394 24.5512 40.3555C23.9758 39.5726 23.6885 38.6642 23.6885 37.6322Z" fill="#D40020"/>
<path d="M40.6638 34.3929C40.1826 34.1447 39.8699 34.0148 39.7249 34.0023C39.5817 33.9906 39.3243 34.0668 38.9528 34.2316C38.1961 34.5425 37.6623 34.9232 37.3505 35.3747C37.0388 35.8244 36.834 36.464 36.7379 37.2954C36.6409 38.1249 36.8448 38.8129 37.3505 39.3594C37.8553 39.904 38.5395 40.1889 39.4023 40.2122C39.9071 40.2122 40.352 40.1181 40.7363 39.9291C41.1205 39.7383 41.503 39.4409 41.8854 39.0369C42.2697 38.6095 42.5279 38.1831 42.6612 37.7576C42.7935 37.3303 42.7817 36.9567 42.6249 36.636C42.1192 35.5449 41.4658 34.7969 40.6638 34.3929ZM34.7224 37.6322C34.7224 36.3279 35.0822 35.1955 35.8027 34.2352C36.5222 33.2731 37.5001 32.6012 38.7353 32.2214C39.1558 32.0924 39.5582 32.0583 39.9424 32.1174C40.3267 32.1748 40.7997 32.3351 41.3634 32.5976C42.3132 33.0231 43.0998 33.6869 43.7233 34.5899C44.3468 35.4911 44.664 36.4049 44.6767 37.3312C44.664 38.2557 44.2861 39.182 43.542 40.1083C42.7971 41.0328 41.909 41.6616 40.8777 41.9931C39.8454 42.3013 38.8495 42.3013 37.8907 41.9931C36.9309 41.6849 36.1624 41.1394 35.5852 40.3555C35.0097 39.5726 34.7224 38.6642 34.7224 37.6322Z" fill="#D40020"/>
<path d="M45.9884 30.4261C46.1696 30.2595 46.4034 30.1753 46.6916 30.1753C46.9789 30.1753 47.2064 30.2649 47.3731 30.444C47.5417 30.6214 47.6323 30.9117 47.645 31.3148C47.6323 31.7188 47.6867 32.4785 47.8081 33.5938C47.9287 34.7073 48.0256 35.4482 48.0981 35.8155C48.1317 35.983 48.2114 36.0403 48.3374 35.9875C48.4652 35.9328 48.9609 35.5852 49.8236 34.9447C50.6882 34.3051 51.6488 33.5463 52.7055 32.6693C53.7613 31.7905 54.3667 31.3569 54.5216 31.3685C54.7509 31.3569 54.9729 31.4707 55.1886 31.709C55.4061 31.9455 55.5149 32.1703 55.5149 32.3826C55.5149 32.5958 55.4179 32.8216 55.2249 33.0599C55.0337 33.2964 54.5416 33.7353 53.7495 34.375C52.9565 35.0155 51.7567 35.9292 50.1499 37.1162C50.4127 37.3527 51.0607 37.9583 52.0929 38.933C53.1242 39.9058 53.8202 40.558 54.1809 40.8895C54.5407 41.2218 54.769 41.4655 54.866 41.6205C54.9621 41.7736 54.9802 41.9698 54.9204 42.2081C54.8597 42.4446 54.7083 42.6345 54.4673 42.7779C54.228 42.9185 53.9761 42.9535 53.7133 42.8818C53.4495 42.8101 52.7535 42.2529 51.6253 41.2084C50.4961 40.1405 49.7221 39.4409 49.3016 39.1085C48.8811 38.7771 48.5812 38.6167 48.4026 38.6284C48.2939 38.6284 48.2875 39.0405 48.3845 39.8646C48.4806 40.6888 48.5168 41.2675 48.4933 41.599C48.4688 41.9313 48.3782 42.1813 48.2214 42.3479C48.0419 42.5127 47.8199 42.5951 47.5544 42.5951C47.2907 42.5951 47.0741 42.4984 46.9055 42.3049C46.7388 42.1096 46.6064 41.7235 46.5104 41.1475C46.4161 40.5723 46.272 39.0037 46.079 36.4425C45.8878 33.8796 45.7799 32.2778 45.7564 31.6373C45.7319 30.995 45.8089 30.591 45.9884 30.4261Z" fill="#D40020"/>
<path d="M56.683 31.992C56.8371 31.8254 57.0763 31.7412 57.4008 31.7412C57.727 31.7412 57.9853 31.8308 58.1765 32.01C58.3668 32.1873 58.5535 32.9219 58.7348 34.2137C58.9015 35.5091 59.0084 37.1762 59.0574 39.216C59.1172 41.2568 59.1843 42.5727 59.2568 43.1649C59.3293 43.7597 59.2803 44.1691 59.1118 44.394C58.9568 44.5731 58.7112 44.6735 58.3759 44.695C58.0397 44.7183 57.7995 44.6484 57.6545 44.4835C57.485 44.316 57.34 43.628 57.2195 42.4195C57.1008 41.2084 57.0419 39.7965 57.0419 38.184C57.0419 36.5715 56.9458 35.1902 56.7555 34.0381C56.5616 32.8753 56.538 32.1927 56.683 31.992Z" fill="#D40020"/>
<path d="M60.6949 38.2557C60.4793 36.6888 60.3723 35.7276 60.3723 35.3711C60.3723 35.0154 60.4793 34.6956 60.6949 34.4107C60.9124 34.1268 61.1526 33.9789 61.4163 33.9664C61.6791 33.9789 61.8776 34.0327 62.0108 34.1276C62.1431 34.2208 62.299 34.4107 62.4784 34.6974C62.802 35.2304 63.324 35.8288 64.0444 36.4927C64.619 37.0517 65.4346 37.7468 66.4913 38.5782C67.5471 39.4077 68.1479 39.8278 68.2929 39.8395C68.4017 39.8395 68.4316 39.6496 68.3836 39.2697C68.3111 37.9994 68.2503 36.8187 68.2023 35.7294C68.1416 34.6383 68.1235 33.9261 68.1479 33.5937C68.1715 33.2623 68.2549 33.0195 68.3981 32.8663C68.5431 32.7113 68.7832 32.6218 69.1194 32.5976C69.4575 32.5743 69.6795 32.628 69.7864 32.7588C69.8952 32.8878 69.984 33.3805 70.0547 34.2351C70.1272 35.088 70.2051 36.4765 70.2903 38.399C70.3746 40.3197 70.4045 41.3875 70.3809 41.6025C70.3565 41.8157 70.2432 41.9922 70.0402 42.1328C69.5708 42.4894 68.9889 42.501 68.2929 42.1687C67.5969 41.8372 66.504 41.0901 65.0159 39.9291C63.527 38.7421 62.7648 38.1661 62.7286 38.2019C62.6941 38.2377 62.7612 38.7484 62.9279 39.732C63.0965 40.7165 63.1817 41.3284 63.1817 41.5667C63.1817 41.8032 63.1146 42.0101 62.9823 42.1866C62.7304 42.5789 62.4068 42.7044 62.0108 42.5628C61.6139 42.4195 61.3493 42.0576 61.2169 41.4771C61.0864 40.8948 60.9124 39.8207 60.6949 38.2557Z" fill="#D40020"/>
<path d="M76.3397 42.5948C77.0475 42.5948 77.7136 42.1989 78.3371 41.4052C78.6969 40.9895 78.8772 40.7342 78.8772 40.6383C78.8772 40.5667 78.4929 40.5308 77.7244 40.5308C76.9559 40.5308 76.4684 40.5084 76.2636 40.4627C76.0606 40.4153 75.8694 40.3087 75.6908 40.1438C75.5114 39.9772 75.4162 39.8106 75.4044 39.6457C75.3918 39.4791 75.457 39.2892 75.6002 39.076C75.7452 38.861 75.9491 38.7338 76.2128 38.6926C76.4756 38.6496 77.1599 38.6263 78.2646 38.6209C79.3684 38.6137 80.0408 38.6344 80.2801 38.6818C80.5211 38.7302 80.7858 38.8897 81.0739 39.162C81.3612 39.4343 81.5017 39.7085 81.4944 39.9826C81.489 40.2549 81.1591 40.8426 80.5048 41.7456C79.8523 42.6468 79.3095 43.2739 78.8772 43.6304C78.444 43.9619 78.048 44.1867 77.6882 44.3041C77.3275 44.4232 76.8599 44.4886 76.2853 44.5012C75.0474 44.4886 73.9617 44.0031 73.0264 43.0427C72.4147 42.4121 72.0006 41.7527 71.7831 41.0647C71.5674 40.3767 71.4604 39.2803 71.4604 37.7752C71.4604 36.2685 71.6462 35.0519 72.0187 34.1274C72.3903 33.2011 72.9956 32.5185 73.8348 32.0813C74.1729 31.9022 74.4619 31.8009 74.7012 31.7767C74.9404 31.7535 75.4733 31.7651 76.2998 31.8126C77.1281 31.861 77.7716 31.9443 78.2283 32.0634C78.6851 32.205 79.1527 32.4773 79.6312 32.8804C80.1115 33.2844 80.4758 33.7001 80.7223 34.1274C80.9688 34.5529 81.0975 34.8136 81.1102 34.9086C81.122 35.0044 81.0314 35.206 80.8383 35.5142C80.6471 35.8223 80.3834 35.9531 80.0481 35.9047C79.7119 35.8573 79.4046 35.6145 79.1273 35.1773C78.8029 34.7025 78.5093 34.3818 78.2464 34.217C77.9827 34.0504 77.4426 33.9017 76.6261 33.7727C75.8114 33.6419 75.2468 33.6222 74.9332 33.7153C74.4302 33.8712 74.0315 34.4347 73.7369 35.4067C73.4442 36.3795 73.321 37.4411 73.3672 38.5922C73.4152 39.7443 73.6499 40.6339 74.0704 41.2618C74.297 41.63 74.6396 41.9445 75.0963 42.2042C75.5531 42.4649 75.9672 42.5948 76.3397 42.5948Z" fill="#D40020"/>
<mask id="mask0_142_650" style="mask-type:luminance" maskUnits="userSpaceOnUse" x="53" y="24" width="8" height="6">
<path d="M53.3601 24.1938H60.1361V29.6978H53.3601V24.1938Z" fill="white"/>
</mask>
<g mask="url(#mask0_142_650)">
<path fill-rule="evenodd" clip-rule="evenodd" d="M58.1488 26.0364L57.1148 24.5636C57.1148 24.5627 57.1148 24.5627 57.1148 24.5627C56.9906 24.388 56.7749 24.302 56.5638 24.3432C56.3526 24.3845 56.1859 24.5457 56.1397 24.7535L55.7092 26.6321L54.1994 25.9396C54.1985 25.9396 54.1976 25.9387 54.1976 25.9387C53.9846 25.842 53.7327 25.8859 53.5659 26.0489C53.3982 26.212 53.3511 26.4601 53.4463 26.6724C53.4472 26.6733 53.4472 26.6742 53.4481 26.6751L54.7196 29.4325C54.8111 29.6349 55.0204 29.7595 55.2443 29.7442C55.2452 29.7442 55.2461 29.7442 55.247 29.7442C56.0227 29.6878 56.7622 29.5883 57.4655 29.4486C58.2331 29.2954 58.9581 29.0921 59.636 28.8341C59.8245 28.7633 59.9541 28.5895 59.9668 28.3897L60.2024 24.7921C60.2024 24.7921 60.2024 24.7921 60.2024 24.7912C60.2178 24.5591 60.0737 24.3459 59.8508 24.2698C59.6287 24.1936 59.3822 24.2734 59.249 24.4651L58.1488 26.0364Z" fill="white"/>
</g>
<path fill-rule="evenodd" clip-rule="evenodd" d="M54.3423 26.8284L56.0207 27.5809C56.0714 27.6042 56.1294 27.6033 56.1793 27.5782C56.23 27.5541 56.2653 27.5084 56.278 27.4546L56.7547 25.2876L58.0144 27.0551C58.0452 27.099 58.0951 27.125 58.1494 27.1241C58.2029 27.1241 58.2537 27.0981 58.2836 27.0542L59.4907 25.3037L59.3085 28.2537C58.6887 28.4795 58.0298 28.6595 57.332 28.7921C56.6913 28.9148 56.0179 28.9963 55.3147 29.0429L54.3423 26.8284Z" fill="white"/>
<path fill-rule="evenodd" clip-rule="evenodd" d="M54.0433 26.2704C53.9699 26.2372 53.8829 26.2524 53.8249 26.3089C53.7669 26.3653 53.7506 26.4504 53.7841 26.5239L55.0556 29.2822C55.0846 29.3458 55.1498 29.3852 55.2196 29.3807C55.979 29.3252 56.7031 29.2284 57.3919 29.0904C58.1386 28.9417 58.8437 28.7447 59.5034 28.4938C59.5569 28.4732 59.5941 28.4239 59.5977 28.3666L59.8342 24.7689C59.8378 24.7 59.7962 24.6373 59.73 24.6149C59.6647 24.5925 59.5913 24.6158 59.5524 24.6731L58.1486 26.678L56.8119 24.7716C56.772 24.7161 56.7031 24.6883 56.6352 24.7018C56.5681 24.7152 56.5146 24.7663 56.5001 24.8325L55.9682 27.1537L54.0433 26.2704ZM54.3423 26.8285L56.0207 27.581C56.0715 27.6043 56.1295 27.6034 56.1793 27.5783C56.2301 27.5541 56.2654 27.5084 56.2781 27.4547L56.7548 25.2876L58.0145 27.0551C58.0453 27.099 58.0951 27.125 58.1495 27.1241C58.203 27.1241 58.2537 27.0981 58.2836 27.0542L59.4907 25.3038L59.3086 28.2537C58.6887 28.4795 58.0299 28.6595 57.3321 28.7921C56.6913 28.9149 56.018 28.9964 55.3147 29.043L54.3423 26.8285Z" fill="#212121"/>
</svg>
