<svg width="250" height="250" viewBox="0 0 250 250" fill="none" xmlns="http://www.w3.org/2000/svg">
<path d="M26.2735 93.724C29.7266 93.724 32.31 94.1745 34.0287 95.0755C35.7553 95.9687 36.9298 97.4661 37.5522 99.5729C37.9975 100.911 38.1042 102.031 37.8673 102.932C37.6563 103.823 37.1016 104.375 36.2006 104.586C35.3074 104.797 34.5886 104.729 34.0417 104.383C33.4845 103.964 32.9662 103.255 32.4871 102.263C32.0417 101.26 31.6459 100.586 31.2996 100.242C30.9558 99.8958 30.4871 99.6719 29.8985 99.5729C26.935 98.9479 24.6251 99.1224 22.9662 100.089C21.7266 100.846 21.349 101.589 21.8282 102.312C22.3074 103.036 24.3074 104.286 27.8282 106.062C31.3464 107.839 33.8308 109.279 35.2787 110.383C36.7266 111.484 37.6563 112.57 38.0704 113.641C38.4818 114.711 38.6199 115.951 38.4871 117.367C38.3516 118.781 37.9897 120.023 37.4011 121.091C34.4037 126.396 28.935 127.102 20.9949 123.214C17.2397 121.378 16.1537 119.583 17.7371 117.833C18.3256 117.143 19.0339 116.831 19.8595 116.898C20.6928 116.966 21.9428 117.417 23.6095 118.25C25.2839 119.076 26.8464 119.555 28.2943 119.69C29.7423 119.826 30.6563 119.826 31.0339 119.69C31.4141 119.555 31.81 119.242 32.2214 118.755C32.7787 117.964 33.0548 117.26 33.0548 116.646C33.0548 116.023 32.4871 115.266 31.3516 114.372C30.2136 113.471 28.1016 112.339 25.0105 110.977C21.922 109.612 19.6199 108.279 18.1042 106.971C16.5886 105.659 15.8308 104.018 15.8308 102.047C15.8308 99.4635 17.1902 97.224 19.9089 95.3281C20.9792 94.5365 21.8256 94.0729 22.448 93.9401C23.0704 93.7969 24.3464 93.724 26.2735 93.724ZM47.3855 95.1146C47.3855 103.734 47.5209 108.357 47.7917 108.979C48.448 109.427 50.4141 109.169 53.6876 108.211C56.9636 107.242 58.8282 106.378 59.2839 105.62C59.7292 104.964 59.2292 103.568 57.7813 101.427C56.3308 99.2891 54.9167 97.8073 53.5365 96.9818C52.1563 96.1589 50.1068 95.5339 47.3855 95.1146ZM44.2787 89.8984H48.6746C51.1589 90.0339 53.297 90.5156 55.0912 91.3516C56.8829 92.1745 58.711 93.6562 60.5704 95.7969C62.4324 97.9349 63.7397 100.141 64.4975 102.414C65.1902 104.654 65.1563 106.552 64.3985 108.109C63.6407 109.659 61.948 111.039 59.3204 112.25C56.7032 113.456 53.8282 114.227 50.6954 114.562L47.6902 114.93L47.9558 119.07C48.0886 120.865 48.1225 122.073 48.0548 122.695C47.9897 123.31 47.7266 123.844 47.2735 124.299C46.5496 125.159 45.7735 125.516 44.948 125.372C44.1251 125.237 43.4167 124.568 42.8282 123.365C42.448 122.674 42.1199 117.432 41.8412 107.641C41.5652 97.8411 41.599 92.513 41.9428 91.6536C42.0183 91.4427 42.1251 91.2708 42.2579 91.1354C42.3933 91 42.5287 90.849 42.6641 90.6823C42.8074 90.5052 42.9792 90.3828 43.1798 90.3151C43.3907 90.2396 43.5522 90.1667 43.6615 90.099C43.797 89.9661 44.0027 89.8984 44.2787 89.8984ZM85.1459 99.9766C83.7657 99.2526 82.8646 98.8724 82.4428 98.8385C82.0313 98.8047 81.2891 99.0339 80.2214 99.5208C78.0469 100.414 76.5105 101.516 75.6121 102.831C74.7188 104.135 74.1329 105.995 73.8542 108.411C73.586 110.828 74.1746 112.833 75.6225 114.424C77.0704 116.005 79.0365 116.831 81.5209 116.898C82.9688 116.898 84.2449 116.625 85.3464 116.078C86.4506 115.521 87.5548 114.654 88.6563 113.477C89.7605 112.24 90.5001 111 90.8803 109.763C91.2579 108.518 91.224 107.427 90.7787 106.492C89.3308 103.326 87.4532 101.154 85.1459 99.9766ZM68.0704 109.396C68.0704 105.599 69.1016 102.307 71.1641 99.5208C73.237 96.7266 76.0495 94.776 79.6016 93.6745C80.8152 93.2943 81.9714 93.1953 83.0756 93.3698C84.1771 93.5391 85.5365 94.0026 87.1537 94.7604C89.8803 95.9974 92.1433 97.9297 93.935 100.557C95.7292 103.174 96.6433 105.828 96.6745 108.513C96.6433 111.208 95.5548 113.901 93.4167 116.596C91.2787 119.281 88.7292 121.104 85.7657 122.065C82.7917 122.964 79.9246 122.969 77.1641 122.076C74.4115 121.174 72.2058 119.589 70.5469 117.315C68.8959 115.034 68.0704 112.393 68.0704 109.396ZM116.852 99.9766C115.471 99.2526 114.57 98.8724 114.151 98.8385C113.737 98.8047 112.997 99.0339 111.927 99.5208C109.755 100.414 108.219 101.516 107.318 102.831C106.425 104.135 105.841 105.995 105.563 108.411C105.292 110.828 105.883 112.833 107.331 114.424C108.779 116.005 110.745 116.831 113.229 116.898C114.677 116.898 115.951 116.625 117.055 116.078C118.156 115.521 119.26 114.654 120.362 113.477C121.466 112.24 122.208 111 122.586 109.763C122.964 108.518 122.932 107.427 122.484 106.492C121.037 103.326 119.159 101.154 116.852 99.9766ZM99.7787 109.396C99.7787 105.599 100.81 102.307 102.872 99.5208C104.943 96.7266 107.755 94.776 111.307 93.6745C112.521 93.2943 113.677 93.1953 114.781 93.3698C115.885 93.5391 117.245 94.0026 118.859 94.7604C121.589 95.9974 123.849 97.9297 125.643 100.557C127.435 103.174 128.349 105.828 128.383 108.513C128.349 111.208 127.263 113.901 125.125 116.596C122.987 119.281 120.435 121.104 117.471 122.065C114.5 122.964 111.633 122.969 108.87 122.076C106.117 121.174 103.912 119.589 102.253 117.315C100.604 115.034 99.7787 112.393 99.7787 109.396ZM132.154 88.4453C132.677 87.9661 133.349 87.7266 134.175 87.7266C135 87.7266 135.654 87.987 136.133 88.5078C136.62 89.0234 136.883 89.8646 136.917 91.0339C136.883 92.2057 137.037 94.4115 137.383 97.651C137.729 100.893 138.003 103.049 138.203 104.117C138.313 104.599 138.55 104.763 138.912 104.612C139.273 104.458 140.693 103.453 143.167 101.591C145.651 99.724 148.409 97.513 151.438 94.9635C154.479 92.4115 156.224 91.1536 156.68 91.1875C157.328 91.1536 157.964 91.4818 158.586 92.1719C159.211 92.862 159.521 93.5182 159.521 94.1406C159.521 94.7552 159.242 95.4089 158.688 96.099C158.141 96.7891 156.727 98.0651 154.445 99.9245C152.172 101.786 148.724 104.443 144.102 107.893C144.859 108.586 146.719 110.344 149.682 113.172C152.656 116.003 154.659 117.901 155.695 118.87C156.729 119.828 157.383 120.536 157.651 120.99C157.93 121.437 157.982 122.005 157.805 122.695C157.635 123.378 157.206 123.93 156.516 124.349C155.826 124.763 155.102 124.865 154.344 124.654C153.586 124.451 151.586 122.831 148.344 119.792C145.104 116.693 142.878 114.659 141.664 113.69C140.461 112.724 139.602 112.255 139.089 112.289C138.776 112.289 138.76 113.49 139.037 115.888C139.315 118.289 139.417 119.971 139.341 120.94C139.273 121.898 139.016 122.62 138.57 123.099C138.057 123.589 137.417 123.831 136.651 123.831C135.893 123.831 135.273 123.547 134.794 122.974C134.315 122.401 133.935 121.281 133.656 119.615C133.38 117.937 132.964 113.38 132.406 105.937C131.859 98.487 131.552 93.8307 131.484 91.9687C131.417 90.099 131.641 88.9245 132.154 88.4453ZM162.875 92.9922C163.331 92.513 164.021 92.2734 164.948 92.2734C165.88 92.2734 166.622 92.5339 167.169 93.0547C167.724 93.5677 168.26 95.7031 168.773 99.4583C169.26 103.221 169.573 108.068 169.708 113.995C169.885 119.93 170.073 123.76 170.276 125.487C170.487 127.214 170.346 128.398 169.859 129.047C169.414 129.57 168.706 129.865 167.737 129.932C166.779 130 166.091 129.792 165.68 129.312C165.19 128.826 164.773 126.826 164.43 123.315C164.083 119.794 163.912 115.69 163.912 111C163.912 106.312 163.638 102.292 163.091 98.9401C162.534 95.5651 162.464 93.5807 162.875 92.9922ZM174.406 111.216C173.792 106.661 173.484 103.865 173.484 102.831C173.484 101.794 173.792 100.865 174.406 100.039C175.031 99.2057 175.721 98.7708 176.479 98.7396C177.245 98.7708 177.818 98.9271 178.195 99.2057C178.576 99.4844 179.021 100.034 179.534 100.859C180.469 102.409 181.966 104.151 184.031 106.089C185.688 107.706 188.034 109.721 191.065 112.138C194.104 114.555 195.831 115.779 196.242 115.812C196.555 115.812 196.643 115.26 196.508 114.159C196.297 110.461 196.125 107.031 195.99 103.865C195.813 100.693 195.758 98.6198 195.826 97.651C195.901 96.6849 196.146 95.9766 196.557 95.5312C196.971 95.0833 197.656 94.8281 198.617 94.7604C199.586 94.6927 200.224 94.849 200.536 95.2266C200.849 95.6068 201.104 97.0365 201.307 99.5208C201.518 101.997 201.74 106.029 201.977 111.62C202.219 117.211 202.307 120.318 202.242 120.94C202.175 121.555 201.846 122.068 201.255 122.482C199.917 123.516 198.247 123.555 196.242 122.594C194.247 121.625 191.112 119.451 186.833 116.065C182.557 112.622 180.365 110.951 180.255 111.052C180.154 111.154 180.344 112.635 180.823 115.497C181.31 118.359 181.555 120.135 181.555 120.826C181.555 121.516 181.365 122.12 180.987 122.633C180.263 123.776 179.328 124.143 178.182 123.732C177.047 123.31 176.289 122.258 175.909 120.573C175.531 118.88 175.031 115.763 174.406 111.216ZM219.365 123.831C221.404 123.831 223.318 122.674 225.112 120.359C226.138 119.156 226.651 118.414 226.651 118.135C226.651 117.935 225.55 117.833 223.344 117.833C221.138 117.833 219.74 117.766 219.151 117.63C218.57 117.487 218.018 117.177 217.497 116.698C216.982 116.208 216.708 115.724 216.675 115.245C216.641 114.755 216.831 114.206 217.245 113.591C217.656 112.966 218.242 112.596 219 112.479C219.758 112.352 221.721 112.281 224.896 112.263C228.07 112.247 230.003 112.31 230.693 112.453C231.383 112.589 232.141 113.052 232.966 113.844C233.792 114.633 234.195 115.43 234.18 116.229C234.161 117.021 233.216 118.727 231.339 121.344C229.461 123.964 227.898 125.789 226.651 126.826C225.414 127.794 224.279 128.451 223.242 128.794C222.206 129.141 220.865 129.331 219.214 129.365C215.661 129.331 212.536 127.914 209.844 125.12C208.083 123.294 206.893 121.383 206.268 119.385C205.654 117.383 205.346 114.193 205.346 109.815C205.346 105.427 205.883 101.891 206.951 99.2057C208.021 96.5104 209.763 94.5286 212.18 93.2578C213.138 92.7344 213.964 92.4401 214.654 92.3724C215.344 92.3047 216.878 92.3437 219.253 92.487C221.635 92.6224 223.482 92.862 224.797 93.2057C226.109 93.6198 227.453 94.4141 228.826 95.5937C230.206 96.763 231.25 97.9687 231.956 99.2057C232.664 100.443 233.034 101.201 233.068 101.479C233.102 101.758 232.841 102.346 232.284 103.247C231.737 104.138 230.979 104.518 230.01 104.383C229.052 104.24 228.177 103.534 227.385 102.263C226.451 100.88 225.604 99.9505 224.846 99.4714C224.089 98.9818 222.534 98.5495 220.185 98.1693C217.846 97.7917 216.224 97.7396 215.323 98.0182C213.875 98.4635 212.732 100.102 211.888 102.932C211.047 105.76 210.693 108.846 210.828 112.187C210.964 115.531 211.635 118.115 212.849 119.943C213.505 121.01 214.487 121.93 215.792 122.695C217.104 123.453 218.297 123.831 219.365 123.831Z" stroke="black" stroke-width="10.0876"/>
<path d="M26.2765 93.7183C29.7271 93.7183 32.313 94.1662 34.0369 95.062C35.7583 95.9578 36.9328 97.4578 37.5578 99.562C38.0005 100.911 38.1021 102.031 37.8599 102.927C37.6567 103.822 37.1047 104.375 36.2036 104.583C35.3078 104.791 34.5838 104.723 34.0369 104.375C33.4875 103.966 32.9692 103.26 32.4849 102.26C32.0317 101.26 31.6333 100.588 31.2869 100.239C30.9458 99.8927 30.4849 99.6662 29.9015 99.562C26.9354 98.9448 24.6229 99.1193 22.964 100.083C21.7271 100.841 21.3494 101.583 21.8286 102.312C22.313 103.036 24.313 104.286 27.8286 106.062C31.3494 107.833 33.8312 109.27 35.2765 110.375C36.7271 111.479 37.6567 112.567 38.0682 113.635C38.4849 114.705 38.6229 115.947 38.4849 117.364C38.3442 118.776 37.9849 120.015 37.4015 121.083C34.4015 126.395 28.9354 127.104 21.0057 123.208C17.2401 121.382 16.1541 119.588 17.7453 117.822C18.3286 117.135 19.0317 116.828 19.8599 116.895C20.6932 116.966 21.9432 117.414 23.6099 118.239C25.2817 119.067 26.8416 119.549 28.2869 119.687C29.7375 119.828 30.6541 119.828 31.0369 119.687C31.4172 119.549 31.813 119.239 32.2244 118.76C32.7791 117.968 33.0578 117.265 33.0578 116.645C33.0578 116.02 32.4875 115.26 31.3494 114.364C30.2088 113.468 28.0942 112.341 25.0057 110.979C21.9224 109.611 19.6203 108.276 18.0994 106.968C16.5838 105.656 15.8286 104.018 15.8286 102.052C15.8286 99.4631 17.188 97.2183 19.9119 95.3224C20.9797 94.5308 21.8234 94.0672 22.4432 93.9266C23.0682 93.7886 24.3442 93.7183 26.2765 93.7183Z" fill="#D40020"/>
<path d="M47.3785 95.1143C47.3785 103.739 47.5165 108.362 47.7952 108.979C48.4462 109.432 50.4124 109.174 53.691 108.208C56.967 107.244 58.829 106.38 59.2743 105.614C59.7249 104.963 59.2249 103.567 57.7743 101.427C56.329 99.2887 54.915 97.807 53.5347 96.9788C52.1597 96.1533 50.1077 95.5309 47.3785 95.1143ZM44.2743 89.8955H48.6702C51.1545 90.0361 53.2952 90.5179 55.0868 91.3434C56.8785 92.1715 58.704 93.6533 60.566 95.7913C62.4332 97.932 63.7457 100.14 64.5035 102.416C65.191 104.653 65.1545 106.549 64.3993 108.104C63.6415 109.653 61.9514 111.031 59.3264 112.239C56.7066 113.448 53.829 114.226 50.691 114.573L47.691 114.927L47.9514 119.073C48.0894 120.864 48.1233 122.073 48.0556 122.698C47.9853 123.317 47.7249 123.849 47.2743 124.291C46.5504 125.151 45.7769 125.513 44.9514 125.375C44.1233 125.242 43.415 124.573 42.8264 123.364C42.4514 122.672 42.1233 117.427 41.8472 107.635C41.5686 97.8434 41.6025 92.5179 41.9514 91.6559C42.0191 91.4476 42.1207 91.2757 42.2535 91.1351C42.3915 90.9971 42.5295 90.8408 42.6702 90.6663C42.8082 90.4945 42.9827 90.3747 43.191 90.3122C43.3993 90.2445 43.5556 90.1742 43.6597 90.1038C43.7978 89.9658 44.0035 89.8955 44.2743 89.8955Z" fill="#D40020"/>
<path d="M85.143 99.9789C83.7602 99.2576 82.8617 98.88 82.4451 98.8435C82.0336 98.8097 81.294 99.031 80.2263 99.5102C78.0518 100.414 76.518 101.521 75.6222 102.833C74.7263 104.14 74.1378 106 73.8617 108.416C73.5831 110.828 74.169 112.828 75.6222 114.416C77.0727 116 79.0388 116.828 81.518 116.896C82.9685 116.896 84.2472 116.622 85.3513 116.073C86.4555 115.518 87.5544 114.653 88.6534 113.479C89.7576 112.237 90.4998 110.997 90.8826 109.76C91.2628 108.518 91.2289 107.432 90.7784 106.5C89.3253 103.328 87.4477 101.153 85.143 99.9789ZM68.0701 109.396C68.0701 105.604 69.1039 102.312 71.1742 99.5206C73.2419 96.7237 76.0518 94.7706 79.6013 93.6664C80.8097 93.2914 81.9659 93.1925 83.0701 93.3644C84.1742 93.531 85.5336 93.9972 87.1534 94.7602C89.8826 95.9972 92.143 97.9269 93.9347 100.552C95.7263 103.172 96.6378 105.828 96.6742 108.521C96.6378 111.208 95.5518 113.901 93.4138 116.594C91.2732 119.281 88.7211 121.109 85.7576 122.073C82.7914 122.969 79.9294 122.969 77.1742 122.073C74.4164 121.177 72.2081 119.591 70.5492 117.312C68.8956 115.036 68.0701 112.396 68.0701 109.396Z" fill="#D40020"/>
<path d="M116.85 99.9789C115.467 99.2576 114.569 98.88 114.152 98.8435C113.74 98.8097 113.001 99.031 111.933 99.5102C109.759 100.414 108.225 101.521 107.329 102.833C106.433 104.14 105.845 106 105.569 108.416C105.29 110.828 105.876 112.828 107.329 114.416C108.779 116 110.746 116.828 113.225 116.896C114.675 116.896 115.954 116.622 117.058 116.073C118.162 115.518 119.261 114.653 120.36 113.479C121.464 112.237 122.207 110.997 122.589 109.76C122.97 108.518 122.936 107.432 122.485 106.5C121.032 103.328 119.154 101.153 116.85 99.9789ZM99.7769 109.396C99.7769 105.604 100.811 102.312 102.881 99.5206C104.949 96.7237 107.759 94.7706 111.308 93.6664C112.516 93.2914 113.673 93.1925 114.777 93.3644C115.881 93.531 117.24 93.9972 118.86 94.7602C121.589 95.9972 123.85 97.9269 125.641 100.552C127.433 103.172 128.345 105.828 128.381 108.521C128.345 111.208 127.259 113.901 125.121 116.594C122.98 119.281 120.428 121.109 117.464 122.073C114.498 122.969 111.636 122.969 108.881 122.073C106.123 121.177 103.915 119.591 102.256 117.312C100.602 115.036 99.7769 112.396 99.7769 109.396Z" fill="#D40020"/>
<path d="M132.151 88.4474C132.671 87.9631 133.343 87.7183 134.171 87.7183C134.997 87.7183 135.651 87.9787 136.13 88.4995C136.614 89.0151 136.875 89.8589 136.911 91.0308C136.875 92.2052 137.031 94.4136 137.38 97.6558C137.726 100.893 138.005 103.046 138.213 104.114C138.309 104.601 138.539 104.768 138.901 104.614C139.268 104.455 140.692 103.445 143.171 101.583C145.656 99.7235 148.416 97.5177 151.453 94.9683C154.487 92.4136 156.226 91.1532 156.671 91.187C157.33 91.1532 157.968 91.4839 158.588 92.1766C159.213 92.8641 159.526 93.5177 159.526 94.1349C159.526 94.7547 159.247 95.411 158.692 96.1037C158.143 96.7912 156.729 98.0672 154.453 99.9266C152.174 101.789 148.726 104.445 144.109 107.895C144.864 108.583 146.726 110.343 149.692 113.177C152.656 116.005 154.656 117.901 155.692 118.864C156.726 119.83 157.382 120.539 157.661 120.989C157.937 121.434 157.989 122.005 157.817 122.697C157.643 123.385 157.208 123.937 156.515 124.354C155.828 124.763 155.104 124.864 154.348 124.656C153.591 124.447 151.591 122.828 148.348 119.791C145.104 116.687 142.88 114.653 141.671 113.687C140.463 112.723 139.601 112.257 139.088 112.291C138.776 112.291 138.757 113.489 139.036 115.885C139.312 118.281 139.416 119.963 139.348 120.927C139.278 121.893 139.018 122.619 138.567 123.104C138.052 123.583 137.414 123.822 136.651 123.822C135.893 123.822 135.27 123.541 134.786 122.979C134.307 122.411 133.927 121.289 133.651 119.614C133.38 117.942 132.966 113.382 132.411 105.937C131.862 98.4865 131.552 93.8302 131.484 91.9683C131.414 90.1011 131.635 88.9266 132.151 88.4474Z" fill="#D40020"/>
<path d="M162.882 92.9997C163.325 92.5153 164.012 92.2705 164.945 92.2705C165.882 92.2705 166.624 92.5309 167.174 93.0518C167.721 93.5674 168.257 95.7028 168.778 99.458C169.257 103.224 169.564 108.07 169.705 114C169.877 119.932 170.07 123.757 170.278 125.479C170.486 127.208 170.346 128.398 169.861 129.052C169.416 129.573 168.71 129.864 167.747 129.927C166.781 129.994 166.091 129.791 165.674 129.312C165.187 128.825 164.77 126.825 164.424 123.312C164.083 119.791 163.913 115.687 163.913 111C163.913 106.312 163.637 102.297 163.091 98.9476C162.533 95.5674 162.466 93.583 162.882 92.9997Z" fill="#D40020"/>
<path d="M174.411 111.208C173.791 106.653 173.484 103.859 173.484 102.822C173.484 101.789 173.791 100.859 174.411 100.031C175.036 99.2053 175.726 98.7756 176.484 98.7391C177.239 98.7756 177.809 98.9319 178.192 99.2079C178.572 99.4787 179.02 100.031 179.536 100.864C180.466 102.414 181.966 104.153 184.036 106.083C185.687 107.708 188.031 109.729 191.067 112.145C194.101 114.557 195.828 115.778 196.244 115.812C196.557 115.812 196.643 115.26 196.505 114.156C196.296 110.463 196.122 107.031 195.984 103.864C195.809 100.692 195.757 98.622 195.828 97.6558C195.895 96.6923 196.135 95.9865 196.546 95.5412C196.963 95.0907 197.653 94.8303 198.619 94.76C199.591 94.6923 200.229 94.8485 200.536 95.2287C200.848 95.6037 201.104 97.036 201.307 99.5204C201.515 102 201.739 106.036 201.984 111.625C202.226 117.208 202.312 120.312 202.244 120.937C202.174 121.557 201.848 122.07 201.265 122.479C199.916 123.515 198.244 123.549 196.244 122.583C194.244 121.619 191.104 119.447 186.828 116.072C182.549 112.622 180.359 110.947 180.255 111.052C180.156 111.156 180.348 112.64 180.828 115.5C181.312 118.362 181.557 120.14 181.557 120.833C181.557 121.52 181.364 122.122 180.984 122.635C180.26 123.776 179.33 124.14 178.192 123.729C177.052 123.312 176.291 122.26 175.911 120.572C175.536 118.88 175.036 115.757 174.411 111.208Z" fill="#D40020"/>
<path d="M219.367 123.822C221.4 123.822 223.314 122.671 225.106 120.364C226.14 119.156 226.658 118.414 226.658 118.135C226.658 117.927 225.554 117.822 223.346 117.822C221.137 117.822 219.736 117.757 219.148 117.625C218.564 117.487 218.015 117.177 217.502 116.697C216.986 116.213 216.713 115.729 216.679 115.25C216.643 114.765 216.83 114.213 217.242 113.593C217.658 112.968 218.244 112.599 219.002 112.479C219.757 112.354 221.723 112.286 224.898 112.27C228.07 112.25 230.002 112.309 230.689 112.447C231.382 112.588 232.143 113.052 232.971 113.843C233.796 114.635 234.2 115.432 234.179 116.229C234.163 117.02 233.215 118.729 231.335 121.354C229.46 123.974 227.9 125.796 226.658 126.833C225.413 127.796 224.275 128.45 223.242 128.791C222.205 129.138 220.861 129.328 219.21 129.364C215.653 129.328 212.533 127.916 209.846 125.125C208.088 123.291 206.898 121.375 206.273 119.375C205.653 117.375 205.346 114.187 205.346 109.812C205.346 105.432 205.88 101.895 206.95 99.2079C208.018 96.5152 209.757 94.5308 212.169 93.26C213.14 92.7392 213.971 92.4449 214.658 92.3746C215.346 92.3069 216.877 92.3407 219.252 92.4787C221.632 92.6194 223.481 92.8616 224.794 93.2079C226.106 93.6194 227.45 94.411 228.825 95.5829C230.205 96.7574 231.252 97.9657 231.96 99.2079C232.669 100.445 233.038 101.203 233.075 101.479C233.109 101.757 232.848 102.343 232.294 103.239C231.744 104.135 230.986 104.515 230.023 104.375C229.057 104.237 228.174 103.531 227.377 102.26C226.445 100.88 225.601 99.9475 224.846 99.4683C224.088 98.984 222.536 98.5517 220.189 98.1767C217.848 97.7965 216.226 97.7392 215.325 98.01C213.88 98.4631 212.734 100.101 211.887 102.927C211.046 105.755 210.692 108.841 210.825 112.187C210.963 115.536 211.637 118.122 212.846 119.947C213.497 121.018 214.481 121.932 215.794 122.687C217.106 123.445 218.296 123.822 219.367 123.822Z" fill="#D40020"/>
<mask id="mask0_142_22" style="mask-type:luminance" maskUnits="userSpaceOnUse" x="153" y="70" width="20" height="17">
<path d="M153.333 70.3306H172.805V86.3306H153.333V70.3306Z" fill="white"/>
</mask>
<g mask="url(#mask0_142_22)">
<path fill-rule="evenodd" clip-rule="evenodd" d="M167.094 75.6872L164.122 71.406C164.122 71.4034 164.122 71.4034 164.122 71.4034C163.766 70.8956 163.146 70.6456 162.539 70.7654C161.932 70.8851 161.453 71.3539 161.32 71.9581L160.083 77.419L155.745 75.406C155.742 75.406 155.74 75.4034 155.74 75.4034C155.128 75.1221 154.404 75.2497 153.924 75.7237C153.443 76.1976 153.307 76.919 153.581 77.5362C153.583 77.5388 153.583 77.5414 153.586 77.544L157.24 85.5596C157.503 86.1482 158.104 86.5101 158.747 86.4659C158.75 86.4659 158.753 86.4659 158.755 86.4659C160.984 86.3018 163.109 86.0128 165.13 85.6065C167.336 85.1612 169.419 84.57 171.367 83.82C171.909 83.6143 172.281 83.1091 172.318 82.5284L172.995 72.07C172.995 72.07 172.995 72.07 172.995 72.0674C173.039 71.393 172.625 70.7732 171.984 70.5518C171.346 70.3305 170.638 70.5622 170.255 71.1195L167.094 75.6872Z" fill="white"/>
</g>
<path fill-rule="evenodd" clip-rule="evenodd" d="M156.156 77.9894L160.979 80.1769C161.125 80.2446 161.292 80.242 161.435 80.1691C161.581 80.0988 161.682 79.966 161.719 79.8097L163.089 73.5103L166.708 78.6483C166.797 78.7759 166.94 78.8514 167.096 78.8488C167.25 78.8488 167.396 78.7733 167.482 78.6457L170.951 73.5571L170.427 82.1327C168.646 82.7889 166.753 83.3123 164.747 83.6978C162.906 84.0545 160.971 84.2915 158.951 84.4269L156.156 77.9894Z" fill="white"/>
<path fill-rule="evenodd" clip-rule="evenodd" d="M155.297 76.3672C155.086 76.2709 154.836 76.3151 154.669 76.4792C154.503 76.6433 154.456 76.8907 154.552 77.1042L158.206 85.1224C158.289 85.3073 158.476 85.4219 158.677 85.4089C160.859 85.2474 162.94 84.9662 164.919 84.5651C167.065 84.1329 169.091 83.5599 170.987 82.8308C171.141 82.7709 171.247 82.6276 171.258 82.461L171.937 72.0026C171.948 71.8021 171.828 71.6198 171.638 71.5547C171.45 71.4896 171.239 71.5573 171.128 71.724L167.094 77.5521L163.253 72.0105C163.138 71.849 162.94 71.7683 162.745 71.8073C162.552 71.8464 162.398 71.9948 162.357 72.1875L160.828 78.9349L155.297 76.3672ZM156.156 77.9896L160.979 80.1771C161.125 80.2448 161.292 80.2422 161.435 80.1693C161.581 80.099 161.682 79.9662 161.719 79.8099L163.088 73.5105L166.708 78.6485C166.797 78.7761 166.94 78.8516 167.096 78.849C167.25 78.849 167.396 78.7735 167.482 78.6459L170.95 73.5573L170.427 82.1329C168.646 82.7891 166.753 83.3125 164.747 83.698C162.906 84.0547 160.971 84.2917 158.95 84.4271L156.156 77.9896Z" fill="#212121"/>
</svg>
