<svg width="274" height="273" viewBox="0 0 274 273" fill="none" xmlns="http://www.w3.org/2000/svg">
<path d="M28.7991 102.34C32.5808 102.34 35.415 102.829 37.3045 103.808C39.1911 104.786 40.4783 106.424 41.1633 108.722C41.6485 110.195 41.7598 111.418 41.4944 112.396C41.2718 113.374 40.6667 113.977 39.6791 114.204C38.6973 114.432 37.9039 114.358 37.3045 113.977C36.7022 113.53 36.1343 112.76 35.6034 111.668C35.1068 110.576 34.6701 109.842 34.2905 109.461C33.9166 109.083 33.4114 108.835 32.7721 108.722C29.5212 108.048 26.9867 108.238 25.1686 109.29C23.8128 110.118 23.399 110.928 23.9241 111.725C24.455 112.515 26.647 113.88 30.5001 115.82C34.359 117.753 37.079 119.323 38.6631 120.529C40.2528 121.735 41.2718 122.923 41.7227 124.089C42.1794 125.258 42.3307 126.615 42.1794 128.162C42.0253 129.703 41.6314 131.057 40.9921 132.222C37.7041 138.024 31.7132 138.797 23.0222 134.543C18.8951 132.549 17.7049 130.59 19.4488 128.662C20.0881 127.911 20.8588 127.576 21.7664 127.65C22.6797 127.726 24.0497 128.216 25.8764 129.117C27.7088 130.021 29.4184 130.547 31.0025 130.698C32.5922 130.852 33.5969 130.852 34.0165 130.698C34.4332 130.547 34.867 130.209 35.318 129.686C35.9259 128.821 36.2313 128.054 36.2313 127.377C36.2313 126.694 35.6062 125.864 34.359 124.886C33.1089 123.907 30.7913 122.676 27.4062 121.189C24.0269 119.696 21.5038 118.237 19.837 116.809C18.1759 115.376 17.3481 113.587 17.3481 111.44C17.3481 108.614 18.838 106.162 21.8235 104.092C22.9937 103.228 23.9184 102.721 24.5977 102.568C25.2827 102.417 26.6813 102.34 28.7991 102.34Z" fill="#D40020"/>
<path d="M51.9269 103.865C51.9269 113.283 52.0781 118.331 52.3835 119.005C53.0971 119.5 55.252 119.218 58.8454 118.163C62.4359 117.111 64.4766 116.167 64.9647 115.331C65.4585 114.62 64.9105 113.096 63.3207 110.758C61.7366 108.423 60.1868 106.805 58.6741 105.901C57.1671 105 54.918 104.32 51.9269 103.865ZM48.5247 98.166H53.3425C56.0654 98.3196 58.4115 98.8457 60.3752 99.7471C62.3389 100.651 64.3396 102.27 66.3804 104.604C68.4268 106.942 69.8653 109.353 70.6959 111.839C71.4494 114.282 71.4094 116.352 70.5817 118.05C69.7511 119.742 67.8988 121.246 65.0218 122.565C62.1505 123.885 58.9966 124.735 55.5574 125.113L52.2694 125.5L52.5548 130.027C52.7061 131.984 52.7432 133.303 52.669 133.986C52.5919 134.663 52.3065 135.243 51.8127 135.726C51.0192 136.665 50.1716 137.06 49.2668 136.909C48.3592 136.764 47.5828 136.033 46.9378 134.714C46.5268 133.957 46.1672 128.23 45.8646 117.538C45.5592 106.845 45.5963 101.03 45.9788 100.088C46.053 99.8609 46.1643 99.6732 46.3099 99.5196C46.4611 99.3689 46.6124 99.1983 46.7665 99.0078C46.9178 98.8201 47.109 98.6893 47.3374 98.621C47.5657 98.5471 47.737 98.4703 47.8511 98.3935C48.0024 98.2428 48.2279 98.166 48.5247 98.166Z" fill="#D40020"/>
<path d="M93.3167 109.177C91.8011 108.389 90.8164 107.977 90.3597 107.937C89.9088 107.9 89.0982 108.142 87.928 108.665C85.5448 109.652 83.8637 110.861 82.8818 112.294C81.9 113.721 81.2549 115.752 80.9524 118.391C80.647 121.024 81.2892 123.208 82.8818 124.943C84.4716 126.672 86.6265 127.576 89.3437 127.65C90.9334 127.65 92.3348 127.351 93.545 126.751C94.7552 126.146 95.9596 125.202 97.1641 123.919C98.3742 122.563 99.1877 121.209 99.6072 119.858C100.024 118.502 99.9868 117.316 99.4931 116.298C97.9004 112.834 95.8426 110.46 93.3167 109.177ZM74.6047 119.46C74.6047 115.32 75.7378 111.725 78.0069 108.677C80.2731 105.622 83.3528 103.49 87.243 102.284C88.5673 101.874 89.8346 101.766 91.0447 101.954C92.2549 102.136 93.7448 102.645 95.5201 103.478C98.5112 104.829 100.989 106.936 102.952 109.803C104.916 112.663 105.915 115.564 105.955 118.505C105.915 121.439 104.725 124.38 102.381 127.32C100.035 130.255 97.2383 132.251 93.9902 133.303C90.7393 134.282 87.6026 134.282 84.5829 133.303C81.5603 132.325 79.14 130.593 77.3219 128.105C75.5095 125.62 74.6047 122.736 74.6047 119.46Z" fill="#D40020"/>
<path d="M128.067 109.177C126.552 108.389 125.567 107.977 125.11 107.937C124.66 107.9 123.849 108.142 122.679 108.665C120.295 109.652 118.614 110.861 117.633 112.294C116.651 113.721 116.006 115.752 115.703 118.391C115.398 121.024 116.04 123.208 117.633 124.943C119.222 126.672 121.377 127.576 124.094 127.65C125.684 127.65 127.086 127.351 128.296 126.751C129.506 126.146 130.71 125.202 131.915 123.919C133.125 122.563 133.938 121.209 134.358 119.858C134.775 118.502 134.738 117.316 134.244 116.298C132.651 112.834 130.593 110.46 128.067 109.177ZM109.355 119.46C109.355 115.32 110.489 111.725 112.758 108.677C115.024 105.622 118.103 103.49 121.994 102.284C123.318 101.874 124.585 101.766 125.795 101.954C127.006 102.136 128.496 102.645 130.271 103.478C133.262 104.829 135.739 106.936 137.703 109.803C139.667 112.663 140.666 115.564 140.706 118.505C140.666 121.439 139.475 124.38 137.132 127.32C134.786 130.255 131.989 132.251 128.741 133.303C125.49 134.282 122.353 134.282 119.334 133.303C116.311 132.325 113.891 130.593 112.073 128.105C110.26 125.62 109.355 122.736 109.355 119.46Z" fill="#D40020"/>
<path d="M144.837 96.5848C145.408 96.0559 146.144 95.7886 147.052 95.7886C147.956 95.7886 148.673 96.0729 149.198 96.6417C149.729 97.2048 150.014 98.1261 150.054 99.4058C150.014 100.688 150.186 103.1 150.568 106.64C150.948 110.175 151.253 112.527 151.481 113.693C151.587 114.225 151.838 114.407 152.235 114.239C152.637 114.065 154.199 112.962 156.916 110.929C159.639 108.898 162.664 106.49 165.992 103.706C169.317 100.916 171.224 99.5395 171.712 99.5764C172.434 99.5395 173.133 99.9006 173.812 100.657C174.497 101.408 174.84 102.122 174.84 102.796C174.84 103.472 174.534 104.189 173.927 104.945C173.324 105.696 171.775 107.09 169.28 109.12C166.783 111.153 163.004 114.054 157.943 117.822C158.771 118.573 160.812 120.495 164.063 123.589C167.311 126.677 169.503 128.748 170.639 129.8C171.772 130.855 172.491 131.628 172.796 132.12C173.099 132.607 173.156 133.229 172.968 133.986C172.776 134.737 172.3 135.339 171.54 135.794C170.787 136.241 169.994 136.352 169.166 136.124C168.335 135.897 166.143 134.128 162.59 130.812C159.034 127.422 156.596 125.201 155.272 124.146C153.947 123.094 153.003 122.585 152.44 122.622C152.098 122.622 152.078 123.93 152.383 126.547C152.686 129.163 152.8 131 152.726 132.052C152.649 133.107 152.363 133.901 151.87 134.429C151.304 134.953 150.605 135.214 149.769 135.214C148.938 135.214 148.256 134.907 147.725 134.293C147.2 133.673 146.783 132.447 146.481 130.619C146.184 128.793 145.73 123.814 145.122 115.683C144.52 107.547 144.18 102.463 144.106 100.43C144.029 98.3906 144.272 97.1081 144.837 96.5848Z" fill="#D40020"/>
<path d="M178.519 101.556C179.004 101.027 179.757 100.759 180.779 100.759C181.807 100.759 182.62 101.044 183.222 101.612C183.822 102.175 184.41 104.507 184.981 108.608C185.506 112.72 185.843 118.012 185.997 124.488C186.185 130.966 186.396 135.143 186.625 137.023C186.853 138.911 186.699 140.211 186.168 140.924C185.68 141.493 184.906 141.812 183.85 141.88C182.791 141.954 182.035 141.732 181.578 141.209C181.045 140.677 180.588 138.493 180.208 134.657C179.835 130.812 179.649 126.33 179.649 121.212C179.649 116.093 179.346 111.708 178.747 108.051C178.136 104.359 178.062 102.193 178.519 101.556Z" fill="#D40020"/>
<path d="M191.154 121.439C190.475 116.466 190.138 113.414 190.138 112.282C190.138 111.153 190.475 110.138 191.154 109.234C191.839 108.332 192.596 107.863 193.426 107.823C194.254 107.863 194.879 108.034 195.299 108.335C195.715 108.631 196.206 109.234 196.771 110.144C197.79 111.836 199.434 113.736 201.703 115.843C203.513 117.617 206.082 119.824 209.41 122.463C212.735 125.096 214.627 126.43 215.084 126.467C215.426 126.467 215.52 125.864 215.369 124.658C215.141 120.626 214.949 116.878 214.798 113.42C214.607 109.956 214.55 107.695 214.627 106.64C214.701 105.588 214.964 104.818 215.415 104.331C215.871 103.839 216.628 103.555 217.687 103.478C218.751 103.404 219.45 103.575 219.787 103.99C220.13 104.4 220.409 105.964 220.632 108.677C220.86 111.384 221.106 115.792 221.374 121.894C221.64 127.991 221.734 131.381 221.66 132.064C221.583 132.74 221.226 133.301 220.586 133.747C219.108 134.879 217.276 134.916 215.084 133.861C212.892 132.809 209.449 130.437 204.763 126.751C200.074 122.983 197.673 121.155 197.559 121.269C197.451 121.382 197.662 123.003 198.187 126.126C198.718 129.251 198.986 131.193 198.986 131.95C198.986 132.701 198.775 133.357 198.358 133.918C197.565 135.163 196.546 135.561 195.299 135.112C194.048 134.657 193.215 133.508 192.798 131.665C192.387 129.817 191.839 126.407 191.154 121.439Z" fill="#D40020"/>
<path d="M240.426 135.214C242.655 135.214 244.753 133.957 246.716 131.438C247.85 130.118 248.418 129.308 248.418 129.004C248.418 128.776 247.207 128.662 244.787 128.662C242.367 128.662 240.831 128.591 240.186 128.446C239.547 128.296 238.945 127.957 238.382 127.434C237.817 126.905 237.518 126.376 237.48 125.853C237.44 125.324 237.646 124.721 238.097 124.044C238.554 123.362 239.196 122.958 240.026 122.827C240.854 122.691 243.009 122.617 246.488 122.6C249.965 122.577 252.082 122.642 252.836 122.793C253.595 122.946 254.428 123.453 255.336 124.317C256.241 125.182 256.683 126.052 256.66 126.922C256.643 127.787 255.604 129.652 253.544 132.519C251.489 135.379 249.779 137.37 248.418 138.502C247.053 139.554 245.806 140.268 244.673 140.64C243.537 141.019 242.064 141.226 240.255 141.266C236.356 141.226 232.937 139.685 229.991 136.636C228.065 134.634 226.76 132.541 226.075 130.357C225.396 128.173 225.059 124.693 225.059 119.915C225.059 115.132 225.644 111.27 226.817 108.335C227.987 105.395 229.894 103.228 232.537 101.84C233.602 101.271 234.512 100.95 235.266 100.873C236.019 100.799 237.697 100.836 240.3 100.987C242.909 101.141 244.935 101.405 246.374 101.783C247.812 102.233 249.285 103.097 250.792 104.377C252.305 105.659 253.452 106.979 254.229 108.335C255.005 109.686 255.41 110.514 255.45 110.815C255.487 111.119 255.202 111.759 254.594 112.737C253.992 113.716 253.161 114.131 252.105 113.977C251.046 113.827 250.079 113.056 249.205 111.668C248.184 110.161 247.259 109.143 246.431 108.62C245.601 108.091 243.899 107.619 241.328 107.209C238.762 106.794 236.984 106.731 235.996 107.027C234.412 107.522 233.156 109.311 232.229 112.396C231.307 115.484 230.919 118.854 231.064 122.509C231.216 126.166 231.955 128.989 233.279 130.983C233.993 132.152 235.071 133.15 236.51 133.975C237.948 134.802 239.253 135.214 240.426 135.214Z" fill="#D40020"/>
<mask id="mask0_142_650" style="mask-type:luminance" maskUnits="userSpaceOnUse" x="168" y="76" width="22" height="19">
<path d="M168.053 76.8013H189.394V94.2733H168.053V76.8013Z" fill="white"/>
</mask>
<g mask="url(#mask0_142_650)">
<path fill-rule="evenodd" clip-rule="evenodd" d="M183.135 82.6507L179.878 77.9756C179.878 77.9728 179.878 77.9728 179.878 77.9728C179.487 77.4182 178.808 77.1452 178.143 77.276C177.478 77.4069 176.953 77.9187 176.807 78.5785L175.451 84.5418L170.696 82.3436C170.693 82.3436 170.69 82.3408 170.69 82.3408C170.02 82.0336 169.226 82.173 168.701 82.6905C168.173 83.2081 168.025 83.9958 168.324 84.6698C168.327 84.6726 168.327 84.6755 168.33 84.6783L172.334 93.4314C172.623 94.0741 173.282 94.4694 173.987 94.421C173.99 94.421 173.993 94.421 173.996 94.421C176.439 94.2419 178.768 93.9262 180.983 93.4826C183.4 92.9963 185.683 92.3508 187.818 91.5318C188.412 91.3071 188.82 90.7554 188.86 90.1213L189.602 78.7008C189.602 78.7008 189.602 78.7008 189.602 78.6979C189.651 77.9614 189.197 77.2846 188.495 77.0429C187.795 76.8011 187.019 77.0542 186.6 77.6628L183.135 82.6507Z" fill="white"/>
</g>
<path fill-rule="evenodd" clip-rule="evenodd" d="M171.147 85.1647L176.433 87.5534C176.593 87.6274 176.776 87.6245 176.933 87.5449C177.092 87.4681 177.204 87.3231 177.244 87.1525L178.745 80.2734L182.712 85.8842C182.809 86.0235 182.966 86.106 183.138 86.1031C183.306 86.1031 183.466 86.0207 183.56 85.8813L187.362 80.3246L186.788 89.6891C184.836 90.4057 182.761 90.9773 180.563 91.3982C178.545 91.7878 176.425 92.0466 174.21 92.1944L171.147 85.1647Z" fill="white"/>
<path fill-rule="evenodd" clip-rule="evenodd" d="M170.205 83.3928C169.974 83.2876 169.7 83.3359 169.517 83.5151C169.335 83.6942 169.283 83.9644 169.389 84.1976L173.393 92.9535C173.485 93.1554 173.69 93.2805 173.91 93.2663C176.302 93.09 178.582 92.7829 180.751 92.3449C183.103 91.8729 185.324 91.2472 187.402 90.451C187.57 90.3856 187.687 90.2292 187.698 90.0472L188.443 78.6267C188.455 78.4077 188.324 78.2086 188.115 78.1375C187.91 78.0665 187.679 78.1404 187.556 78.3224L183.135 84.6867L178.925 78.6352C178.799 78.4589 178.582 78.3707 178.368 78.4134C178.157 78.456 177.989 78.6181 177.943 78.8286L176.268 86.1967L170.205 83.3928ZM171.147 85.1645L176.433 87.5532C176.593 87.6271 176.776 87.6243 176.933 87.5447C177.092 87.4679 177.204 87.3229 177.244 87.1522L178.745 80.2732L182.712 85.8839C182.809 86.0233 182.966 86.1057 183.138 86.1029C183.306 86.1029 183.466 86.0204 183.56 85.8811L187.362 80.3244L186.788 89.6889C184.836 90.4055 182.761 90.9771 180.563 91.398C178.545 91.7875 176.425 92.0463 174.21 92.1942L171.147 85.1645Z" fill="#212121"/>
</svg>
